# xmcd CD database file
#
# Track frame offsets:
#	150
#	10863
#	15501
#	28652
#	35915
#	43466
#	53078
#	68766
#	77730
#	89368
#	98632
#	106491
#	114183
#	134483
#	146021
#	153147
#	163022
#	170710
#	186143
#	196094
#	213212
#
# Disc length: 3022 seconds
#
# Revision: 0
# Processed by: cddbd v1.5PL3 Copyright (c) Steve Scherf et al.
# Submitted via: CDex 1.51
#
DISCID=190bcc15
DTITLE=Sojiro - Heart Obtained  Vol 03
DYEAR=1991
DGENRE=New Age
TTITLE0=Spring by Somewhere
TTITLE1=(Japanese Title)
TTITLE2=Spring Has Come
TTITLE3=Shoes sound
TTITLE4=Town of that
TTITLE5=Which Disobeys
TTITLE6=Seven children
TTITLE7=and a shake  it might be indigo
TTITLE8=Mother
TTITLE9=Red Shoes
TTITLE10=Or
TTITLE11=(Japanese Title)
TTITLE12=Desert of Moon
TTITLE13=of Mandarin Orange
TTITLE14=Doll of Blue Eye
TTITLE15=Bride Doll
TTITLE16=The night with a full moon 
TTITLE17=Kiyama of
TTITLE18=Sand Mountain
TTITLE19=Autumn of Village
TTITLE20=Evening Glow Small Glow
EXTD=YEAR: 1991
EXTT0=
EXTT1=
EXTT2=
EXTT3=
EXTT4=
EXTT5=
EXTT6=
EXTT7=
EXTT8=
EXTT9=
EXTT10=
EXTT11=
EXTT12=
EXTT13=
EXTT14=
EXTT15=
EXTT16=
EXTT17=
EXTT18=
EXTT19=
EXTT20=
PLAYORDER=
